<svg t="1589805974797" class="icon" viewBox="0 0 1024 1024" version="1.1" xmlns="http://www.w3.org/2000/svg" p-id="5377" width="64" height="64"><path d="M170 488.384h228.096V170H170v318.384z m14.256-14.256H383.84V184.256H184.256v289.872z" fill="#597EF7" p-id="5378"></path><path d="M170 626.192h228.096V398.095H170z" fill="#597EF7" p-id="5379"></path><path d="M170 854.288h228.096V512.144H170v342.144z m14.256-14.255H383.84V526.4H184.256v313.633z" fill="#597EF7" p-id="5380"></path><path d="M383.84 661.832h242.352V398.096H383.84v263.736z m15.444-16.632h212.652V414.728H399.284V645.2z" fill="#597EF7" p-id="5381"></path><path d="M398.096 854.288h228.097V626.192H398.096z" fill="#597EF7" p-id="5382"></path><path d="M575.108 854.288h279.18V626.192h-279.18v228.096z m17.82-14.256h244.728V640.448H592.928v199.584z" fill="#597EF7" p-id="5383"></path></svg>