<svg t="1590043277601" class="icon" viewBox="0 0 1024 1024" version="1.1" xmlns="http://www.w3.org/2000/svg" p-id="5950" width="64" height="64"><path d="M270.336 374.272c0 131.584 107.008 238.592 238.592 238.592S747.52 505.856 747.52 374.272 640.512 135.68 508.928 135.68 270.336 242.176 270.336 374.272z" fill="#efc3e6" p-id="5951"></path><path d="M888.32 794.112c-3.584-11.776-9.216-23.552-16.384-34.816-18.432-35.84-34.816-61.952-67.072-94.72-73.216-75.776-179.2-120.32-293.376-120.832-157.184 1.024-296.448 89.6-363.52 220.672-7.168 11.264-9.728 24.064-13.312 35.84-8.192 26.624-9.216 62.976 0.512 87.04 9.728 24.064 28.16 43.52 52.224 56.832 23.552 12.8 53.76 18.944 87.04 19.456v0.512H747.52v-0.512c33.28-0.512 63.488-5.632 87.04-18.432 24.064-13.312 41.472-27.648 51.2-51.712 5.12-11.776 9.728-29.696 9.728-47.616 1.536-18.944-2.56-38.4-7.168-51.712z" fill="#efc3e6" p-id="5952"></path></svg>