<svg t="1589619677731" class="icon" viewBox="0 0 1024 1024" version="1.1" xmlns="http://www.w3.org/2000/svg" p-id="1631" width="64" height="64"><path d="M896 917.333333H128c-12.8 0-21.333333-8.533333-21.333333-21.333333V128c0-12.8 8.533333-21.333333 21.333333-21.333333h768c12.8 0 21.333333 8.533333 21.333333 21.333333v768c0 12.8-10.666667 21.333333-21.333333 21.333333z" fill="#ff9966" p-id="1632" data-spm-anchor-id="a313x.7781069.0.i0" class="selected"></path><path d="M236.8 480H196.266667c0-29.866667 8.533333-51.2 27.733333-64 10.666667-8.533333 25.6-10.666667 42.666667-10.666667 21.333333 0 38.4 6.4 51.2 17.066667s21.333333 27.733333 21.333333 49.066667c0 17.066667-4.266667 29.866667-14.933333 42.666666-6.4 8.533333-17.066667 17.066667-29.866667 25.6l-25.6 19.2c-6.4 4.266667-14.933333 10.666667-17.066667 17.066667H341.333333v42.666667H192c0-14.933333 2.133333-29.866667 6.4-38.4 6.4-14.933333 21.333333-29.866667 42.666667-44.8 17.066667-12.8 27.733333-21.333333 34.133333-25.6 12.8-12.8 19.2-23.466667 19.2-36.266667 0-8.533333-2.133333-14.933333-6.4-21.333333-6.4-6.4-12.8-10.666667-21.333333-10.666667-12.8 0-21.333333 4.266667-25.6 14.933333-4.266667 4.266667-4.266667 12.8-4.266667 23.466667zM362.666667 512c0-36.266667 6.4-61.866667 19.2-81.066667s29.866667-25.6 55.466666-25.6c25.6 0 44.8 8.533333 55.466667 25.6 12.8 17.066667 19.2 44.8 19.2 81.066667 0 36.266667-6.4 64-19.2 81.066667S462.933333 618.666667 437.333333 618.666667c-25.6 0-44.8-8.533333-55.466666-25.6-12.8-19.2-19.2-44.8-19.2-81.066667z m42.666666 0c0 27.733333 2.133333 46.933333 6.4 57.6 4.266667 10.666667 12.8 17.066667 23.466667 17.066667 12.8 0 19.2-6.4 23.466667-17.066667 4.266667-10.666667 6.4-29.866667 6.4-57.6 0-27.733333-2.133333-46.933333-6.4-57.6-4.266667-10.666667-12.8-17.066667-23.466667-17.066667-12.8 0-19.2 6.4-23.466667 17.066667-4.266667 10.666667-6.4 29.866667-6.4 57.6zM853.333333 550.4c0 17.066667-4.266667 32-14.933333 42.666667-12.8 17.066667-32 23.466667-57.6 23.466666-25.6 0-44.8-6.4-57.6-21.333333-10.666667-12.8-17.066667-25.6-17.066667-42.666667 0-10.666667 2.133333-19.2 4.266667-25.6 4.266667-12.8 14.933333-21.333333 27.733333-27.733333-17.066667-8.533333-25.6-21.333333-25.6-40.533333 0-17.066667 6.4-32 19.2-40.533334 12.8-10.666667 27.733333-14.933333 46.933334-14.933333 21.333333 0 38.4 6.4 51.2 17.066667 10.666667 10.666667 17.066667 23.466667 17.066666 38.4 0 8.533333-2.133333 17.066667-6.4 25.6-4.266667 6.4-10.666667 12.8-19.2 17.066666 10.666667 4.266667 19.2 10.666667 23.466667 19.2 4.266667 6.4 8.533333 17.066667 8.533333 29.866667z m-44.8 2.133333c0-8.533333-2.133333-17.066667-6.4-21.333333-6.4-6.4-12.8-10.666667-25.6-10.666667-8.533333 0-14.933333 2.133333-21.333333 8.533334-6.4 6.4-8.533333 14.933333-8.533333 25.6s2.133333 19.2 8.533333 23.466666c6.4 6.4 12.8 8.533333 23.466667 8.533334 10.666667 0 17.066667-4.266667 23.466666-10.666667 4.266667-8.533333 6.4-14.933333 6.4-23.466667z m-29.866666-64c8.533333 0 14.933333-2.133333 19.2-6.4 4.266667-4.266667 6.4-10.666667 6.4-19.2s-2.133333-12.8-6.4-19.2c-4.266667-4.266667-10.666667-6.4-17.066667-6.4-8.533333 0-17.066667 2.133333-21.333333 6.4-4.266667 4.266667-6.4 10.666667-6.4 19.2 0 6.4 2.133333 12.8 6.4 17.066667 4.266667 6.4 10.666667 8.533333 19.2 8.533333zM661.333333 533.333333v-128h-51.2L533.333333 533.333333v42.666667h85.333334v42.666667h42.666666v-42.666667h21.333334v-42.666667h-21.333334z m-42.666666 0h-42.666667l42.666667-74.666666V533.333333z" fill="#FFFFFF" p-id="1633"></path></svg>