<svg t="1589341286892" class="icon" viewBox="0 0 1024 1024" version="1.1" xmlns="http://www.w3.org/2000/svg" p-id="4340" width="64" height="64"><path d="M437.02044445 943.21777778c-8.30577778 0-15.13244445-6.82666667-15.13244445-15.13244445V602.56711111c0-8.30577778 6.82666667-15.13244445 15.13244445-15.13244444h92.27377777c5.80266667-35.49866667 36.63644445-62.57777778 73.61422223-62.57777778 37.09155555 0 67.92533333 27.19288889 73.61422222 62.57777778h86.016c8.30577778 0 15.13244445 6.82666667 15.13244444 15.13244444v325.51822222c0 8.30577778-6.82666667 15.13244445-15.13244444 15.13244445H437.02044445z" fill="#E5F1F9" p-id="4341"></path><path d="M602.90844445 539.98933333c32.88177778 0 59.50577778 26.624 59.50577777 59.50577778 0 1.024-0.11377778 2.048-0.11377777 3.18577778h100.352v325.51822222H437.02044445V602.56711111h106.60977777c0-1.024-0.11377778-2.048-0.11377777-3.18577778-0.11377778-32.768 26.51022222-59.392 59.392-59.392m0-30.26488888c-40.04977778 0-73.95555555 26.28266667-85.5608889 62.57777777h-80.3271111c-16.72533333 0-30.26488889 13.53955555-30.2648889 30.26488889v325.40444444c0 16.72533333 13.53955555 30.26488889 30.2648889 30.2648889h325.51822222c16.72533333 0 30.26488889-13.53955555 30.26488888-30.2648889v-325.40444444c0-16.72533333-13.53955555-30.26488889-30.26488888-30.26488889h-74.06933334c-11.60533333-36.18133333-45.51111111-62.57777778-85.56088888-62.57777777z" fill="#282F63" p-id="4342"></path><path d="M739.78311111 602.56711111v302.76266667H437.02044445v22.75555555h325.51822222V602.56711111z" fill="#AAD4E9" p-id="4343"></path><path d="M86.58488889 943.21777778c-8.30577778 0-15.13244445-6.82666667-15.13244444-15.13244445V602.56711111c0-8.30577778 6.82666667-15.13244445 15.13244444-15.13244444h325.51822222c8.30577778 0 15.13244445 6.82666667 15.13244444 15.13244444v92.27377778c35.49866667 5.80266667 62.57777778 36.63644445 62.57777778 73.61422222 0 37.09155555-27.19288889 67.92533333-62.57777778 73.61422222v86.016c0 8.30577778-6.82666667 15.13244445-15.13244444 15.13244445H86.58488889z" fill="#1E62A1" p-id="4344"></path><path d="M411.98933333 602.56711111v106.60977778c1.024 0 2.048-0.11377778 3.18577778-0.11377778 32.88177778 0 59.50577778 26.624 59.50577778 59.50577778s-26.624 59.50577778-59.50577778 59.50577778c-1.024 0-2.048-0.11377778-3.18577778-0.11377778v100.352h-325.40444444V602.56711111h325.40444444m0-30.26488889h-325.40444444c-16.72533333 0-30.26488889 13.53955555-30.26488889 30.26488889v325.51822222c0 16.72533333 13.53955555 30.26488889 30.26488889 30.26488889h325.51822222c16.72533333 0 30.26488889-13.53955555 30.26488889-30.26488889v-74.06933333c36.29511111-11.49155555 62.57777778-45.51111111 62.57777778-85.56088889s-26.28266667-73.95555555-62.57777778-85.56088889v-80.32711111c-0.11377778-16.72533333-13.65333333-30.26488889-30.37866667-30.26488889z" fill="#282F63" p-id="4345"></path><path d="M116.84977778 625.32266667h295.13955555v-22.75555556h-325.40444444v325.51822222h30.26488889z" fill="#3381BC" p-id="4346"></path><path d="M246.10133333 655.24622222c-37.09155555 0-67.92533333-27.19288889-73.61422222-62.57777777H86.47111111c-8.30577778 0-15.13244445-6.82666667-15.13244444-15.13244445v-325.40444445c0-8.30577778 6.82666667-15.13244445 15.13244444-15.13244444h325.51822222c8.30577778 0 15.13244445 6.82666667 15.13244445 15.13244444v100.352c0 4.096-1.70666667 8.07822222-4.66488889 10.92266667-2.84444445 2.73066667-6.59911111 4.20977778-10.46755556 4.20977778h-0.68266666c-0.45511111 0-0.91022222 0-1.36533334-0.11377778h-1.024c-27.87555555 0-50.63111111 22.64177778-50.63111111 50.63111111s22.64177778 50.63111111 50.63111111 50.63111112h1.024c0.45511111 0 0.91022222-0.11377778 1.47911112-0.11377778h0.68266666c3.86844445 0 7.62311111 1.47911111 10.46755556 4.20977778 2.95822222 2.84444445 4.66488889 6.82666667 4.66488888 10.92266666v94.09422222c0 8.30577778-6.82666667 15.13244445-15.13244444 15.13244445H319.71555555c-5.68888889 35.15733333-36.52266667 62.23644445-73.61422222 62.23644444z" fill="#E5F1F9" p-id="4347"></path><path d="M411.98933333 252.13155555v100.352c-1.024 0-2.048-0.11377778-3.18577778-0.11377777-36.29511111 0-65.76355555 29.46844445-65.76355555 65.76355555s29.46844445 65.76355555 65.76355555 65.76355556c1.024 0 2.048-0.11377778 3.18577778-0.11377778v94.09422222h-106.60977778c0 1.024 0.11377778 2.048 0.11377778 3.18577778 0 32.88177778-26.624 59.50577778-59.50577778 59.50577778s-59.50577778-26.624-59.50577777-59.50577778c0-1.024 0.11377778-2.048 0.11377777-3.18577778h-100.352V252.13155555h325.74577778m0-30.26488888h-325.40444444c-16.72533333 0-30.26488889 13.53955555-30.26488889 30.26488888v325.51822223c0 16.72533333 13.53955555 30.26488889 30.26488889 30.26488889h74.06933333c11.49155555 36.29511111 45.51111111 62.57777778 85.56088889 62.57777778s73.95555555-26.28266667 85.56088889-62.57777778h80.32711111c16.72533333 0 30.26488889-13.53955555 30.26488889-30.26488889V483.55555555c0-8.30577778-3.41333333-16.15644445-9.32977778-21.84533333-5.68888889-5.34755555-13.08444445-8.41955555-20.93511111-8.41955555h-1.47911111c-0.56888889 0-1.13777778 0.11377778-1.70666667 0.11377778h-0.34133333c-19.456-0.11377778-35.15733333-16.04266667-35.15733333-35.49866667s15.70133333-35.27111111 35.15733333-35.49866667h0.34133333c0.56888889 0 1.13777778 0.11377778 1.70666667 0.11377778h1.47911111c7.73688889 0 15.24622222-2.95822222 20.93511111-8.41955556 6.03022222-5.68888889 9.32977778-13.65333333 9.32977778-21.84533333v-100.12444445c-0.11377778-16.72533333-13.65333333-30.26488889-30.37866667-30.26488888z" fill="#282F63" p-id="4348"></path><path d="M116.84977778 282.39644445h295.13955555v-30.2648889h-325.40444444v325.40444445h30.26488889z" fill="#FFFFFF" p-id="4349"></path><path d="M726.35733333 534.86933333c-3.86844445 0-7.50933333-1.47911111-10.35377778-4.096L642.84444445 462.16533333c-3.072-2.84444445-4.77866667-6.82666667-4.77866667-10.92266666 0-4.096 1.59288889-8.07822222 4.55111111-11.03644445 0.34133333-0.34133333 0.68266667-0.68266667 1.024-0.91022222l0.68266666-0.68266667c9.216-9.89866667 14.10844445-22.75555555 13.65333334-36.18133333s-6.144-26.05511111-15.92888889-35.27111111c-9.44355555-8.87466667-21.73155555-13.65333333-34.58844445-13.65333334-14.10844445 0-27.19288889 5.68888889-36.864 15.9288889-0.22755555 0.22755555-0.45511111 0.45511111-0.68266666 0.79644444-0.34133333 0.34133333-0.56888889 0.68266667-0.91022222 1.13777778-2.73066667 3.18577778-6.59911111 5.00622222-10.69511112 5.23377778h-0.79644444c-3.86844445 0-7.50933333-1.47911111-10.35377778-4.096l-68.608-64.39822223c-6.144-5.68888889-6.37155555-15.24622222-0.68266666-21.39022222l63.14666666-67.24266667c-9.55733333-12.288-14.90488889-27.30666667-15.36-43.12177778-0.68266667-19.91111111 6.48533333-38.912 20.13866667-53.36177777 13.99466667-15.01866667 33.90577778-23.552 54.38577778-23.552 15.01866667 0 29.35466667 4.43733333 41.64266667 12.62933333l58.8231111-62.69155556c2.95822222-3.18577778 7.05422222-4.77866667 11.03644445-4.77866666 3.75466667 0 7.39555555 1.36533333 10.35377778 4.096l237.34044444 222.66311111c2.95822222 2.73066667 4.66488889 6.59911111 4.77866667 10.58133333 0.11377778 3.98222222-1.36533333 7.96444445-4.096 10.80888889L737.39377778 530.09066667c-2.73066667 2.95822222-6.59911111 4.66488889-10.58133333 4.77866666h-0.45511112z" fill="#FFDBA0" p-id="4350"></path><path d="M711.79377778 59.61955555l237.34044444 222.66311112-222.77688889 237.45422222-61.78133333-57.91288889-11.37777778-10.69511111c0.79644445-0.68266667 1.47911111-1.36533333 2.27555556-2.16177778 24.80355555-26.51022222 23.552-68.03911111-2.95822223-92.84266666-12.62933333-11.94666667-28.78577778-17.74933333-44.94222222-17.74933334-17.52177778 0-35.04355555 6.94044445-47.90044444 20.70755556l-2.048 2.38933333-6.82666667-6.37155555-61.78133333-58.14044445 72.93155556-77.71022222c-0.79644445-0.68266667-1.59288889-1.25155555-2.38933334-2.048-23.89333333-22.41422222-25.14488889-60.07466667-2.61688889-84.08177778 11.71911111-12.51555555 27.53422222-18.77333333 43.34933333-18.77333333 14.56355555 0 29.24088889 5.34755555 40.61866667 16.15644444 0.79644445 0.68266667 1.47911111 1.47911111 2.16177778 2.27555556l68.72177778-73.15911112m0-30.26488888h-0.91022223c-8.07822222 0.22755555-15.58755555 3.64088889-21.16266666 9.55733333l-50.63111111 54.04444445c-11.94666667-5.68888889-25.14488889-8.76088889-38.68444445-8.7608889-24.68977778 0-48.58311111 10.35377778-65.42222222 28.33066667-27.42044445 29.12711111-31.40266667 72.02133333-12.85688889 105.24444445l-54.95466667 58.59555555c-5.46133333 5.80266667-8.41955555 13.65333333-8.192 21.61777778 0.22755555 8.07822222 3.64088889 15.58755555 9.55733334 21.16266667l61.78133333 57.91288888 6.82666667 6.37155556c5.57511111 5.23377778 13.08444445 8.192 20.70755556 8.192h1.70666666c8.30577778-0.45511111 15.92888889-4.32355555 21.39022222-10.58133333 0.34133333-0.45511111 0.68266667-0.91022222 1.13777778-1.36533333l0.22755556-0.22755556c6.71288889-7.05422222 15.81511111-10.92266667 25.6-10.92266667 8.98844445 0 17.63555555 3.41333333 24.23466666 9.55733333 6.94044445 6.48533333 10.92266667 15.24622222 11.15022222 24.68977778 0.34133333 9.32977778-3.072 18.31822222-9.32977777 25.14488889l-0.22755556 0.22755556c-0.45511111 0.34133333-0.79644445 0.79644445-1.25155555 1.13777777-5.91644445 5.80266667-9.216 13.65333333-9.216 21.95911112 0.11377778 8.30577778 3.52711111 16.15644445 9.55733333 21.84533333l11.37777778 10.69511111 61.78133333 57.91288889c5.57511111 5.23377778 13.08444445 8.192 20.70755556 8.192h0.91022222c8.07822222-0.22755555 15.58755555-3.64088889 21.16266666-9.55733333l222.66311112-237.34044445c11.49155555-12.17422222 10.80888889-31.28888889-1.36533334-42.78044444L732.50133333 37.54666667c-5.68888889-5.23377778-13.08444445-8.192-20.70755555-8.192z" fill="#282F63" p-id="4351"></path><path d="M711.79377778 59.61955555l-10.46755556 11.15022223 217.54311111 204.00355555L706.56 501.07733333l19.79733333 18.65955556 222.77688889-237.34044444z" fill="#FCC975" p-id="4352"></path><path d="M439.86488889 92.84266667c-5.23377778 0-9.44355555-4.20977778-9.44355556-9.44355556 0-8.76088889-6.37155555-16.61155555-15.01866666-17.408-9.78488889-0.91022222-18.20444445 6.82666667-18.20444445 16.49777778v0.91022222c0 5.23377778-4.20977778 9.44355555-9.44355555 9.44355556-8.76088889 0-16.61155555 6.37155555-17.408 15.01866666-0.91022222 9.78488889 6.82666667 18.20444445 16.49777778 18.20444445h0.91022222c5.23377778 0 9.44355555 4.20977778 9.44355555 9.44355555 0 8.76088889 6.37155555 16.61155555 15.01866667 17.408 9.78488889 0.91022222 18.20444445-6.82666667 18.20444444-16.49777778v-0.91022222c0-5.23377778 4.20977778-9.44355555 9.44355556-9.44355555h0.91022222c9.67111111 0 17.408-8.30577778 16.49777778-18.20444445-0.91022222-8.64711111-8.76088889-15.01866667-17.408-15.01866666zM916.48 546.816c-5.23377778 0-9.44355555-4.20977778-9.44355555-9.44355555 0-8.76088889-6.37155555-16.61155555-15.01866667-17.408-9.78488889-0.91022222-18.20444445 6.82666667-18.20444445 16.49777777v0.91022223c0 5.23377778-4.20977778 9.44355555-9.44355555 9.44355555-8.76088889 0-16.61155555 6.37155555-17.408 15.01866667-0.91022222 9.78488889 6.82666667 18.20444445 16.49777777 18.20444444h0.91022223c5.23377778 0 9.44355555 4.20977778 9.44355555 9.44355556 0 8.76088889 6.37155555 16.61155555 15.01866667 17.408 9.78488889 0.91022222 18.20444445-6.82666667 18.20444445-16.49777778v-0.91022222c0-5.23377778 4.20977778-9.44355555 9.44355555-9.44355556h0.91022222c9.67111111 0 17.408-8.30577778 16.49777778-18.20444444-0.79644445-8.64711111-8.64711111-15.01866667-17.408-15.01866667z" fill="#9AD6E8" p-id="4353"></path></svg>