<?xml version="1.0" standalone="no"?><!DOCTYPE svg PUBLIC "-//W3C//DTD SVG 1.1//EN" "http://www.w3.org/Graphics/SVG/1.1/DTD/svg11.dtd"><svg t="1588505294853" class="icon" viewBox="0 0 1024 1024" version="1.1" xmlns="http://www.w3.org/2000/svg" p-id="7382" xmlns:xlink="http://www.w3.org/1999/xlink" width="64" height="64"><defs><style type="text/css"></style></defs><path d="M847.3 131.1c25.3 0 45.8 20.6 45.8 45.8V847c0 25.3-20.6 45.8-45.8 45.8h-670c-25.3 0-45.8-20.6-45.8-45.8V176.9c0-25.3 20.6-45.8 45.8-45.8h670m0-67.2h-670c-62.4 0-113 50.6-113 113V847c0 62.4 50.6 113 113 113h670.1c62.4 0 113-50.6 113-113V176.9c0-62.4-50.7-113-113.1-113z" fill="#A6CBDD" p-id="7383"></path><path d="M512.3 454.5c-111.7 0-202.6-90.9-202.6-202.6 0-18.6 15-33.6 33.6-33.6s33.6 15 33.6 33.6c0 74.7 60.8 135.4 135.4 135.4s135.4-60.8 135.4-135.4c0-18.6 15-33.6 33.6-33.6s33.6 15 33.6 33.6c0 111.7-90.9 202.6-202.6 202.6zM664.5 767.5H360.1c-18.6 0-33.6-15-33.6-33.6s15-33.6 33.6-33.6h304.4c18.6 0 33.6 15 33.6 33.6s-15 33.6-33.6 33.6z" fill="#60A9D1" p-id="7384"></path></svg>