<svg t="1590130918890" class="icon" viewBox="0 0 1024 1024" version="1.1" xmlns="http://www.w3.org/2000/svg" p-id="8312" data-spm-anchor-id="a313x.7781069.0.i5" width="64" height="64"><path d="M510.464722 170.777046c16.466604 0 31.30762-3.281279 31.30762-6.592662s-13.185325-6.592662-31.30762-6.592662c-18.092192 0-31.277516 3.281279-31.277516 6.592662s13.185325 6.592662 31.277516 6.592662z" p-id="8313" fill="#ff9966"></path><path d="M853.343368 0H170.656632A170.656632 170.656632 0 0 0 0 170.656632v682.656632a170.656632 170.656632 0 0 0 170.656632 170.656633h682.686736a170.656632 170.656632 0 0 0 170.656632-170.656633V170.656632A170.656632 170.656632 0 0 0 853.343368 0z m57.25682 595.597366c0 9.904045-3.281279 19.777987-4.936971 29.651928-41.151458 32.933208-95.488241 57.618062-156.387582 75.740358-13.185325-93.832549-37.930386-197.569144-77.396049-304.647225a1569.354657 1569.354657 0 0 0-77.396049-182.758231c153.136406 34.619003 289.776105 161.414864 316.116651 382.01317zM510.464722 134.562559c34.588899 0 62.585136 16.466604 62.585137 37.870179 0 14.841016-11.529633 26.340546-29.621825 32.933207 6.592662 0 11.529633 1.625588 18.122295 1.625588 31.277516 59.303857 59.303857 126.795861 85.614299 197.599248 37.900282 107.047977 64.210724 210.784572 77.396049 302.96143-131.732832 32.963311-289.776105 34.588899-421.53904 1.655691 13.185325-92.206961 39.52587-197.569144 77.396049-304.617121 26.340546-70.83349 54.366886-136.669802 85.614299-197.599248 3.281279-1.625588 8.21825-1.625588 11.529633-1.625588-18.122295-6.592662-29.621825-18.122295-29.621825-32.933207-0.030103-19.777987 27.966134-37.870179 62.524929-37.870179z m-77.365945 75.740357a1444.575729 1444.575729 0 0 0-79.05174 184.413923c-37.870179 108.703669-64.210724 214.095955-77.396049 307.928504-64.210724-18.092192-120.203198-44.462841-161.354657-80.677328-1.655691-6.592662-3.281279-14.810913-4.967074-23.08937 23.059266-227.190969 164.66604-357.298213 322.76952-388.575729z m503.87206 424.850424c-1.655691 32.933208-16.496707 95.488241-16.496707 113.610536 1.655691 16.466604 13.185325 16.466604 0 26.310442v1.655691c-176.195673 141.636877-599.360301 151.510818-787.085607 19.777987-3.281279-1.655691-18.092192-8.21825-21.373471-11.529633-18.152399-13.185325-23.08937-18.122295-23.08937-36.214487 0-18.152399-1.655691-75.770461-3.281279-108.673566-1.655691-29.621825 3.281279-27.996237 13.185324-27.996237v1.655692c1.655691 8.21825 3.281279 14.810913 4.936971 23.059266 177.821261 146.543744 635.604892 144.888053 816.707432 0l4.967074-29.621825v-1.655691c9.873942-0.030103 16.466604-1.685795 11.529633 29.621825z" p-id="8314" fill="#ff9966"></path></svg>